<?xml version="1.0" standalone="no"?>
<!DOCTYPE svg PUBLIC "-//W3C//DTD SVG 20010904//EN"
 "http://www.w3.org/TR/2001/REC-SVG-20010904/DTD/svg10.dtd">
<svg version="1.0" xmlns="http://www.w3.org/2000/svg"
 width="640.000000pt" height="640.000000pt" viewBox="0 0 640.000000 640.000000"
 preserveAspectRatio="xMidYMid meet">

<g transform="translate(0.000000,640.000000) scale(0.100000,-0.100000)"
fill="#000000" stroke="none">
<path d="M1598 6393 c881 -2 2323 -2 3205 0 881 1 160 2 -1603 2 -1763 0
-2484 -1 -1602 -2z"/>
<path d="M5842 6343 c-6 -16 -32 -55 -57 -88 -24 -33 -44 -67 -45 -77 0 -9 -5
-18 -12 -20 -9 -3 -9 -6 -1 -11 7 -4 23 10 40 35 16 24 44 63 61 88 32 46 51
100 35 100 -5 0 -14 -12 -21 -27z"/>
<path d="M5306 6310 c6 -6 21 -6 39 -1 30 9 30 9 -9 10 -26 1 -37 -2 -30 -9z"/>
<path d="M4466 6198 c-10 -6 -27 -19 -37 -29 -11 -11 -23 -19 -29 -19 -5 0
-14 -9 -21 -21 -10 -19 -9 -20 12 -14 12 4 34 18 48 31 14 13 34 27 44 30 18
6 23 19 9 28 -4 2 -16 0 -26 -6z"/>
<path d="M5778 6163 c7 -3 16 -2 19 1 4 3 -2 6 -13 5 -11 0 -14 -3 -6 -6z"/>
<path d="M4480 6150 c0 -5 5 -10 10 -10 6 0 10 5 10 10 0 6 -4 10 -10 10 -5 0
-10 -4 -10 -10z"/>
<path d="M5395 6101 c-3 -6 -16 -11 -28 -11 -12 0 -36 -9 -54 -19 -17 -11 -56
-24 -87 -30 -50 -9 -245 -98 -305 -140 -14 -10 -43 -25 -63 -34 -20 -10 -40
-22 -43 -27 -3 -5 -11 -7 -18 -4 -7 2 -33 -8 -57 -23 -75 -47 -84 -52 -125
-74 -22 -12 -116 -72 -210 -133 -190 -126 -227 -146 -180 -95 28 30 29 31 5
19 -39 -20 -140 -93 -140 -101 0 -4 4 -9 9 -11 5 -1 2 -10 -7 -18 -14 -13 -15
-12 -9 3 3 9 3 17 -1 17 -16 -1 -182 -142 -177 -150 4 -6 17 -4 33 4 16 8 57
20 92 27 76 15 92 25 188 118 39 39 77 71 82 71 15 0 12 -35 -5 -77 l-15 -35
41 -40 c37 -36 43 -39 70 -29 17 6 43 19 58 31 45 31 53 26 46 -25 l-7 -44 28
8 c16 5 37 12 47 16 33 13 17 -16 -40 -76 -56 -59 -56 -59 -27 -59 l29 -1 -30
-27 c-17 -15 -40 -38 -50 -51 -19 -23 -17 -23 38 7 31 18 57 28 57 22 0 -18
28 -11 44 11 8 12 72 80 143 153 71 72 149 156 173 186 25 30 54 64 65 76 37
39 216 265 360 454 35 47 70 91 76 98 6 7 9 16 6 18 -3 3 -8 1 -12 -5z"/>
<path d="M5522 5933 c-16 -16 -37 -43 -48 -60 -10 -18 -22 -33 -26 -33 -4 0
-8 -6 -8 -13 0 -8 -27 -42 -60 -77 -33 -35 -60 -64 -60 -66 0 -2 8 0 17 3 29
11 80 68 127 140 24 37 58 78 75 91 30 22 40 42 22 42 -6 0 -23 -12 -39 -27z"/>
<path d="M40 5920 c0 -5 5 -10 10 -10 6 0 10 5 10 10 0 6 -4 10 -10 10 -5 0
-10 -4 -10 -10z"/>
<path d="M3739 5913 c13 -9 40 -31 60 -49 20 -18 37 -29 39 -23 4 9 -45 55
-82 76 -31 18 -45 15 -17 -4z"/>
<path d="M135 5875 c32 -20 70 -38 84 -41 16 -4 6 5 -24 21 -27 15 -60 33 -72
41 -12 8 -28 14 -35 14 -6 0 14 -16 47 -35z"/>
<path d="M30 5871 c0 -12 5 -21 10 -21 6 0 10 6 10 14 0 8 -4 18 -10 21 -5 3
-10 -3 -10 -14z"/>
<path d="M40 5830 c0 -8 -3 -25 -6 -37 -4 -15 0 -24 16 -33 20 -11 21 -10 14
27 -7 39 -24 69 -24 43z"/>
<path d="M270 5810 c19 -13 30 -13 30 0 0 6 -10 10 -22 10 -19 0 -20 -2 -8
-10z"/>
<path d="M3850 5811 c0 -5 5 -13 10 -16 6 -3 10 -2 10 4 0 5 -4 13 -10 16 -5
3 -10 2 -10 -4z"/>
<path d="M3884 5764 c3 -9 6 -18 6 -20 0 -3 5 -2 10 1 16 10 12 35 -6 35 -11
0 -14 -5 -10 -16z"/>
<path d="M3855 5704 c-17 -27 -17 -38 1 -26 11 7 29 52 21 52 -3 0 -12 -12
-22 -26z"/>
<path d="M1976 5695 c-11 -8 -17 -17 -14 -20 2 -3 13 4 23 15 21 23 18 25 -9
5z"/>
<path d="M2898 5672 c-16 -2 -28 -6 -28 -10 0 -4 60 -5 132 -3 73 2 129 5 123
6 -16 5 -198 11 -227 7z"/>
<path d="M2690 5659 c-160 -16 -329 -58 -360 -89 -3 -3 -15 -6 -28 -8 -24 -4
-227 -105 -252 -127 -8 -7 -34 -22 -57 -34 -41 -20 -52 -38 -36 -55 4 -4 8
-13 8 -19 1 -7 4 -28 9 -47 4 -19 3 -56 -3 -82 -8 -32 -8 -55 -1 -74 8 -21 7
-31 -6 -46 -12 -13 -14 -22 -7 -29 7 -7 15 -2 26 15 9 13 33 30 54 36 21 7 56
23 78 35 22 13 76 35 120 50 44 15 85 34 92 42 7 9 19 13 28 9 16 -6 132 26
170 47 80 43 124 59 229 81 66 14 145 26 175 26 31 0 72 4 91 9 64 17 107 19
107 6 0 -7 -6 -11 -13 -8 -6 2 -15 0 -18 -6 -4 -6 3 -12 16 -15 110 -21 146
-26 238 -32 58 -3 148 -15 200 -25 117 -23 157 -25 141 -5 -9 10 -8 16 3 25
18 15 48 101 35 101 -5 0 -9 9 -9 19 0 11 -6 22 -12 25 -14 5 39 56 55 53 5
-1 11 3 14 9 6 17 -68 43 -197 69 -77 15 -123 20 -138 14 -13 -5 -36 -9 -52
-9 -27 0 -261 -75 -423 -135 -73 -27 -92 -30 -82 -15 7 12 49 30 148 65 42 15
80 32 84 38 4 6 -2 8 -15 5 -26 -7 -28 -2 -5 20 16 16 12 17 -58 22 -46 3 -65
8 -49 11 14 4 -4 7 -43 8 -52 1 -66 -2 -61 -11 6 -10 4 -10 -7 0 -7 6 -22 12
-33 12 -16 0 -18 -2 -7 -9 9 -6 -9 -9 -49 -8 -55 0 -60 2 -44 14 10 7 26 13
35 13 10 0 20 4 23 9 6 9 -18 9 -114 0z m-100 -53 c-17 -15 -206 -53 -216 -43
-9 9 41 27 74 27 15 1 38 7 52 15 14 8 43 14 65 15 34 0 37 -2 25 -14z m443
-3 c-7 -2 -21 -2 -30 0 -10 3 -4 5 12 5 17 0 24 -2 18 -5z m-73 -12 c0 -10
-30 -24 -37 -17 -3 3 -2 9 2 15 8 13 35 15 35 2z m580 -1 c-1 -21 -62 -55 -84
-47 -27 10 -18 27 14 27 35 0 40 17 8 23 -13 2 -4 4 20 3 23 0 42 -3 42 -6z
m-153 -26 c-3 -3 -12 -4 -19 -1 -8 3 -5 6 6 6 11 1 17 -2 13 -5z m53 -23 c0
-11 -26 -22 -34 -14 -12 12 -5 23 14 23 11 0 20 -4 20 -9z m-62 -28 c-10 -2
-18 -9 -18 -14 0 -5 -8 -9 -17 -9 -16 1 -16 2 1 15 11 8 27 14 35 14 13 -1 12
-2 -1 -6z m187 -83 c3 -5 -2 -10 -13 -10 -10 0 -26 -8 -35 -18 -13 -15 -14
-21 -4 -31 10 -11 3 -12 -38 -7 -63 8 -78 22 -39 36 16 7 40 12 54 13 14 1 31
8 38 15 16 15 29 15 37 2z m52 -36 c-3 -3 -12 -4 -19 -1 -8 3 -5 6 6 6 11 1
17 -2 13 -5z m65 -37 c-30 -13 -58 -1 -42 18 9 11 17 12 37 2 24 -11 25 -11 5
-20z"/>
<path d="M5292 5658 c-7 -7 -12 -19 -12 -27 0 -11 4 -10 20 4 21 19 26 35 12
35 -4 0 -13 -5 -20 -12z"/>
<path d="M1905 5624 c-24 -37 -11 -41 15 -5 12 17 17 31 12 31 -5 0 -17 -12
-27 -26z"/>
<path d="M3098 5633 c7 -3 16 -2 19 1 4 3 -2 6 -13 5 -11 0 -14 -3 -6 -6z"/>
<path d="M3168 5633 c6 -2 18 -2 25 0 6 3 1 5 -13 5 -14 0 -19 -2 -12 -5z"/>
<path d="M3133 5613 c9 -2 23 -2 30 0 6 3 -1 5 -18 5 -16 0 -22 -2 -12 -5z"/>
<path d="M3803 5595 c-9 -24 1 -27 15 -5 8 13 8 20 2 20 -6 0 -13 -7 -17 -15z"/>
<path d="M3135 5590 c-8 -13 15 -13 35 0 12 8 11 10 -7 10 -12 0 -25 -4 -28
-10z"/>
<path d="M1865 5559 c-4 -6 -5 -12 -2 -15 2 -3 7 2 10 11 7 17 1 20 -8 4z"/>
<path d="M36 5533 c-12 -12 -6 -33 9 -33 8 0 15 6 15 14 0 17 -14 28 -24 19z"/>
<path d="M1760 5530 c0 -5 7 -10 15 -10 8 0 15 5 15 10 0 6 -7 10 -15 10 -8 0
-15 -4 -15 -10z"/>
<path d="M5168 5498 c-18 -24 -51 -62 -73 -86 -43 -47 -52 -62 -37 -62 12 0
152 168 152 181 0 16 -8 10 -42 -33z"/>
<path d="M1915 5441 c17 -34 35 -48 35 -28 0 13 -35 57 -46 57 -2 0 2 -13 11
-29z"/>
<path d="M338 5353 c5 -10 7 -32 5 -50 -4 -27 1 -38 40 -77 25 -24 68 -56 96
-71 67 -33 90 -52 174 -144 12 -12 36 -29 52 -37 17 -7 26 -13 20 -14 -10 0
26 -23 55 -35 82 -34 146 -55 205 -65 39 -7 81 -18 95 -25 55 -28 290 -56 290
-35 0 8 -11 11 -30 8 -17 -3 -33 -1 -36 4 -3 4 -16 8 -30 8 -30 0 -32 16 -1
23 150 39 192 54 191 69 -1 10 9 19 22 22 26 7 32 31 10 39 -7 3 -16 19 -18
36 -4 27 -2 30 14 25 10 -3 18 -1 18 5 0 6 8 11 18 11 13 0 14 -2 3 -9 -7 -5
-12 -14 -9 -22 3 -9 7 -9 18 3 11 11 31 14 85 10 72 -4 129 13 179 53 42 33 7
40 -235 46 -155 4 -233 9 -241 17 -7 7 -20 12 -30 12 -19 0 -180 37 -309 70
-74 20 -109 19 -109 -2 0 -12 -69 -1 -87 14 -9 7 -18 7 -28 -2 -13 -11 -21 -9
-45 8 -16 12 -39 22 -50 22 -30 0 -60 18 -60 35 0 10 -10 15 -29 15 -17 0 -33
5 -36 10 -3 6 -26 10 -49 10 -24 0 -60 7 -79 15 -20 8 -48 15 -62 15 -21 0
-24 -3 -17 -17z"/>
<path d="M3783 5301 c-15 -24 6 -46 36 -38 10 2 26 0 35 -5 29 -16 18 19 -13
41 -36 26 -43 26 -58 2z"/>
<path d="M146 5243 c4 -16 20 -47 35 -71 16 -24 29 -45 29 -47 0 -21 133 -181
138 -166 2 6 -15 33 -37 60 -23 27 -41 56 -41 64 0 8 -20 42 -44 74 -28 36
-41 62 -35 68 14 14 11 21 -16 33 -35 16 -36 16 -29 -15z"/>
<path d="M4440 5249 c-11 -19 -10 -20 9 -10 27 15 36 31 17 31 -8 0 -20 -9
-26 -21z"/>
<path d="M4875 5183 c-25 -28 -31 -43 -17 -43 14 0 52 40 52 55 0 21 -6 19
-35 -12z"/>
<path d="M4020 5152 c0 -11 135 -75 149 -71 7 3 -12 17 -42 32 -74 36 -107 48
-107 39z"/>
<path d="M1848 5060 c-7 -11 -18 -20 -25 -20 -7 0 -47 -34 -89 -75 -42 -41
-71 -75 -65 -75 7 0 22 11 35 25 13 14 26 25 30 25 13 0 86 53 86 62 0 12 26
38 38 38 8 0 22 22 22 36 0 12 -21 1 -32 -16z"/>
<path d="M4254 5066 c-10 -8 -15 -18 -11 -22 4 -4 15 0 24 9 22 21 12 31 -13
13z"/>
<path d="M4474 5049 c-3 -6 -28 -21 -55 -34 l-48 -22 38 -11 c48 -15 91 -15
91 -1 0 5 -5 7 -12 3 -7 -5 -8 -3 -3 6 11 18 15 70 4 70 -4 0 -11 -5 -15 -11z"/>
<path d="M2835 4909 c-22 -3 -33 -7 -25 -9 19 -3 64 1 69 6 9 8 -5 9 -44 3z"/>
<path d="M2928 4909 l-23 -6 25 -6 c52 -12 230 -18 230 -7 0 6 -6 12 -12 15
-22 7 -196 10 -220 4z"/>
<path d="M2690 4900 c-8 -5 -27 -10 -42 -10 -15 0 -29 -4 -32 -9 -3 -4 -28
-11 -55 -15 -28 -4 -53 -10 -55 -15 -3 -5 -27 -12 -53 -16 -26 -4 -76 -19
-112 -35 -36 -15 -86 -34 -110 -41 -23 -7 -50 -23 -58 -36 -11 -16 -25 -23
-49 -23 -18 0 -36 -4 -39 -10 -3 -5 -23 -14 -45 -20 -21 -6 -46 -17 -54 -25
-8 -8 -22 -15 -30 -15 -9 0 -16 -4 -16 -10 0 -5 -10 -10 -22 -10 -13 0 -39 -9
-58 -19 -74 -41 -107 -52 -155 -56 -27 -2 -77 -13 -110 -25 -33 -11 -73 -22
-88 -25 -24 -5 -27 -8 -17 -20 7 -8 27 -15 44 -15 31 0 30 -1 -56 -91 -49 -49
-88 -98 -87 -107 0 -15 2 -15 12 2 28 45 185 188 197 181 13 -8 2 -28 -54 -93
-43 -51 -57 -82 -37 -82 5 0 19 17 32 38 31 52 100 122 120 122 15 0 15 -6 -8
-45 -13 -25 -23 -45 -20 -45 2 0 24 18 47 40 23 22 47 40 52 40 18 0 -2 -53
-33 -87 -16 -19 -29 -41 -29 -49 0 -22 17 -8 47 39 39 63 53 70 79 41 12 -13
34 -26 48 -30 17 -4 26 -13 26 -26 0 -11 10 -41 23 -67 13 -25 36 -86 52 -134
23 -72 26 -90 15 -97 -9 -6 -5 -9 15 -12 24 -2 31 -9 36 -36 4 -22 2 -43 -7
-60 -16 -30 -19 -72 -5 -72 11 0 24 48 16 60 -4 6 0 10 8 10 18 0 29 -69 14
-87 -6 -9 -6 -18 2 -27 6 -7 9 -21 5 -30 -4 -12 0 -16 15 -16 12 0 21 -4 21
-10 0 -5 5 -10 11 -10 8 0 8 4 -1 15 -6 8 -9 19 -5 25 3 5 3 15 -1 22 -5 7 -7
29 -5 50 1 21 -4 50 -13 65 -24 44 -85 191 -111 268 -39 113 -65 333 -34 283
6 -9 9 -7 9 9 0 12 5 25 10 28 6 4 8 10 5 15 -3 4 2 10 10 14 8 3 15 12 15 21
0 8 7 15 15 15 9 0 18 7 22 16 6 17 96 64 228 119 144 60 193 83 201 96 7 12
0 12 -89 -10 -22 -5 -39 -5 -43 0 -3 5 6 9 20 9 14 0 27 4 30 9 3 5 23 12 43
16 21 4 44 11 51 17 6 6 38 12 70 14 31 3 61 10 67 18 6 7 17 13 25 14 38 3
160 36 160 44 0 11 -61 10 -80 -2z m-880 -485 c0 -8 -7 -15 -16 -15 -14 0 -14
3 -4 15 7 8 14 15 16 15 2 0 4 -7 4 -15z m23 -35 c-9 -11 -19 -17 -21 -15 -6
6 18 35 29 35 5 0 1 -9 -8 -20z"/>
<path d="M400 4892 c0 -5 10 -17 21 -28 22 -19 22 -19 10 3 -12 24 -31 39 -31
25z"/>
<path d="M3183 4879 c18 -10 126 -26 242 -35 33 -2 89 -13 125 -23 64 -19 196
-49 318 -73 34 -6 62 -16 62 -20 0 -4 16 -8 35 -8 19 0 35 -3 35 -8 0 -4 13
-13 29 -20 16 -7 32 -19 35 -27 3 -8 6 -88 7 -179 1 -150 8 -200 24 -184 11
10 34 108 24 102 -5 -3 -9 22 -8 58 0 35 3 57 6 51 12 -31 34 3 37 57 1 17 6
25 19 24 9 -1 17 5 17 13 0 8 5 11 10 8 10 -6 8 -23 -7 -62 -11 -30 14 -9 40
32 33 52 53 51 31 0 -18 -45 0 -47 20 -2 22 49 41 67 68 67 21 0 24 -4 23 -38
0 -25 -12 -53 -34 -85 -32 -46 -37 -64 -15 -49 5 4 20 22 33 40 13 19 35 46
48 60 23 25 23 27 6 40 -17 13 -17 14 1 28 11 8 28 14 39 14 10 0 15 5 12 10
-3 6 -30 10 -58 10 -73 1 -234 25 -285 44 -24 9 -73 19 -110 22 -37 4 -69 10
-72 13 -11 15 -377 94 -392 85 -5 -3 -14 -1 -21 4 -7 5 -54 12 -105 16 -51 4
-104 11 -118 16 -36 14 -145 13 -121 -1z m941 -304 c-4 -8 -10 -13 -15 -10 -4
3 -6 12 -3 20 4 8 10 13 15 10 4 -3 6 -12 3 -20z"/>
<path d="M470 4821 c0 -14 137 -153 195 -198 47 -36 103 -65 181 -94 l58 -22
-35 -29 c-65 -55 -101 -89 -97 -93 2 -2 41 18 86 45 45 28 87 50 93 50 14 0
73 32 77 43 2 4 8 5 12 2 5 -3 11 -1 15 5 9 14 -4 13 -57 -5 -42 -15 -48 -15
-101 5 -31 12 -59 26 -62 31 -4 5 -13 9 -22 9 -23 0 -168 104 -260 188 -46 41
-83 69 -83 63z"/>
<path d="M1498 4788 c9 -9 15 -9 24 0 9 9 7 12 -12 12 -19 0 -21 -3 -12 -12z"/>
<path d="M3378 4716 c-20 -15 -23 -32 -7 -41 12 -8 49 23 49 42 0 17 -20 16
-42 -1z"/>
<path d="M1273 4676 c0 -8 6 -12 14 -9 7 3 13 9 13 14 0 5 -6 9 -13 9 -8 0
-14 -6 -14 -14z"/>
<path d="M4533 4673 c-28 -11 -11 -23 25 -17 52 8 95 -10 87 -36 -7 -24 10
-27 19 -4 7 18 60 16 162 -8 79 -18 101 -11 35 13 -98 34 -294 65 -328 52z"/>
<path d="M3492 4660 c-48 -20 -93 -64 -118 -117 -25 -50 -26 -61 -21 -141 11
-164 37 -237 101 -281 49 -34 78 -37 186 -21 105 16 109 18 129 58 46 92 34
224 -34 368 -52 111 -82 137 -164 141 -31 2 -66 -2 -79 -7z m87 -91 c20 -57
14 -106 -14 -125 -57 -37 -106 -11 -104 55 1 49 11 71 40 87 41 23 66 18 78
-17z m-58 -343 c-2 -14 2 -18 17 -14 11 3 43 1 72 -4 41 -7 61 -6 92 7 46 18
53 15 44 -18 -8 -33 -91 -68 -143 -61 -45 7 -103 33 -120 54 -18 23 -26 82
-13 90 17 10 55 -30 51 -54z"/>
<path d="M1140 4585 c-24 -13 -24 -14 -4 -15 12 0 27 7 34 15 16 19 3 19 -30
0z"/>
<path d="M4930 4590 c0 -5 10 -10 23 -10 18 0 19 2 7 10 -19 13 -30 13 -30 0z"/>
<path d="M4303 4561 c-13 -11 -23 -22 -23 -25 0 -3 -16 -30 -35 -60 -36 -57
-40 -66 -27 -66 4 0 13 14 21 31 7 17 25 43 38 57 22 24 58 83 51 82 -2 -1
-13 -9 -25 -19z"/>
<path d="M5015 4561 c17 -12 37 -21 46 -21 9 0 33 -7 52 -15 49 -20 64 -19 44
3 -15 17 -67 35 -137 47 l-35 6 30 -20z"/>
<path d="M1080 4551 c0 -5 9 -7 20 -4 11 3 20 7 20 9 0 2 -9 4 -20 4 -11 0
-20 -4 -20 -9z"/>
<path d="M4425 4540 c-3 -5 -1 -10 4 -10 6 0 11 5 11 10 0 6 -2 10 -4 10 -3 0
-8 -4 -11 -10z"/>
<path d="M4177 4523 c-4 -3 -7 -11 -7 -17 0 -6 5 -5 12 2 6 6 9 14 7 17 -3 3
-9 2 -12 -2z"/>
<path d="M2390 4486 c0 -15 45 -56 61 -56 17 0 9 27 -14 48 -27 25 -47 28 -47
8z"/>
<path d="M5495 4490 c-3 -5 -1 -10 4 -10 6 0 11 5 11 10 0 6 -2 10 -4 10 -3 0
-8 -4 -11 -10z"/>
<path d="M1325 4454 c-106 -21 -199 -45 -211 -55 -6 -5 -44 -23 -85 -39 -123
-51 -149 -63 -149 -72 0 -4 2 -8 4 -8 3 0 101 41 141 60 51 24 221 72 322 93
62 12 113 25 113 30 0 10 -53 7 -135 -9z"/>
<path d="M4137 4454 c-4 -4 -7 -14 -7 -23 0 -11 3 -12 11 -4 6 6 10 16 7 23
-2 6 -7 8 -11 4z"/>
<path d="M5480 4450 c0 -36 -184 -220 -220 -220 -6 0 -10 -7 -10 -16 0 -12 16
-7 70 22 89 49 160 127 165 184 3 22 2 40 0 40 -3 0 -5 -4 -5 -10z"/>
<path d="M2232 4439 c-44 -9 -58 -23 -72 -72 -14 -50 -1 -227 24 -317 28 -105
41 -142 49 -141 4 1 14 1 22 1 9 0 15 9 15 24 0 22 3 23 48 18 44 -4 50 -1 92
37 25 23 49 40 55 38 21 -7 16 -40 -11 -68 -35 -37 -80 -57 -132 -60 -53 -4
-54 -15 -3 -30 53 -16 104 -4 147 33 48 42 64 77 64 140 0 77 -24 151 -101
313 -30 65 -115 101 -197 84z m122 -100 c15 -18 27 -44 28 -65 1 -19 2 -41 2
-50 2 -27 -34 -43 -72 -32 -24 6 -37 18 -48 43 -26 64 -14 110 36 128 25 9 27
8 54 -24z m-99 -328 c3 -5 1 -12 -5 -16 -5 -3 -10 1 -10 9 0 18 6 21 15 7z"/>
<path d="M1776 4295 c-18 -28 -21 -45 -6 -45 8 0 40 51 40 65 0 14 -19 3 -34
-20z"/>
<path d="M5203 4263 c-57 -38 -64 -65 -9 -32 35 20 72 56 65 63 -2 2 -28 -12
-56 -31z"/>
<path d="M4070 4237 c-7 -23 -15 -71 -16 -107 -4 -79 -10 -126 -19 -162 -6
-23 -4 -28 11 -28 22 1 64 33 64 50 0 6 -8 9 -18 6 -15 -5 -17 -1 -14 34 2 22
8 43 13 46 5 3 9 16 9 29 0 13 6 26 13 28 9 4 9 8 -2 15 -20 14 -6 42 21 43
20 1 19 2 -8 14 -25 11 -31 19 -27 38 8 43 -14 38 -27 -6z"/>
<path d="M740 4229 c0 -5 5 -7 10 -4 6 3 10 8 10 11 0 2 -4 4 -10 4 -5 0 -10
-5 -10 -11z"/>
<path d="M711 4184 c0 -11 3 -14 6 -6 3 7 2 16 -1 19 -3 4 -6 -2 -5 -13z"/>
<path d="M4183 4174 c15 -8 27 -22 27 -32 1 -15 2 -15 15 2 20 26 2 46 -39 46
l-31 -1 28 -15z"/>
<path d="M4136 4065 c4 -8 8 -15 10 -15 2 0 4 7 4 15 0 8 -4 15 -10 15 -5 0
-7 -7 -4 -15z"/>
<path d="M4173 4043 c-7 -3 -13 -13 -13 -23 0 -10 -4 -22 -10 -25 -12 -8 -13
-35 -1 -35 8 0 45 80 39 85 -2 1 -9 0 -15 -2z"/>
<path d="M4202 4010 c-15 -48 -15 -63 -2 -55 10 6 40 70 40 86 0 5 -6 9 -13 9
-6 0 -18 -18 -25 -40z"/>
<path d="M4688 4043 c7 -3 16 -2 19 1 4 3 -2 6 -13 5 -11 0 -14 -3 -6 -6z"/>
<path d="M2894 4030 c-30 -12 -37 -25 -20 -39 19 -16 69 4 64 26 -4 20 -17 24
-44 13z"/>
<path d="M4271 4031 c0 -8 -7 -22 -15 -30 -7 -9 -17 -27 -21 -41 l-8 -25 27
27 c20 20 26 34 23 55 -2 15 -5 22 -6 14z"/>
<path d="M4607 4023 c-12 -11 -8 -23 7 -23 8 0 16 7 20 15 5 15 -14 21 -27 8z"/>
<path d="M4311 3989 c-16 -47 -14 -55 9 -29 20 24 27 60 11 60 -5 0 -14 -14
-20 -31z"/>
<path d="M3663 3991 c-16 -26 -29 -96 -16 -88 11 7 38 95 32 102 -3 2 -10 -4
-16 -14z"/>
<path d="M3723 4002 c-6 -4 -14 -25 -18 -46 -6 -28 -5 -37 4 -32 6 4 11 16 11
27 0 11 5 29 10 40 12 21 11 22 -7 11z"/>
<path d="M4538 3988 c9 -9 15 -9 24 0 9 9 7 12 -12 12 -19 0 -21 -3 -12 -12z"/>
<path d="M1853 3973 c9 -2 23 -2 30 0 6 3 -1 5 -18 5 -16 0 -22 -2 -12 -5z"/>
<path d="M3757 3974 c-4 -4 -7 -14 -7 -23 0 -11 3 -12 11 -4 6 6 10 16 7 23
-2 6 -7 8 -11 4z"/>
<path d="M1705 3920 c-35 -17 -79 -30 -105 -30 -38 -2 -41 -3 -19 -10 30 -9
118 3 128 17 3 5 21 15 39 22 34 14 52 32 30 30 -7 0 -40 -14 -73 -29z"/>
<path d="M1960 3921 c-6 -16 -10 -38 -8 -48 4 -17 5 -17 15 2 16 30 25 75 14
75 -5 0 -14 -13 -21 -29z"/>
<path d="M4181 3924 c0 -11 3 -14 6 -6 3 7 2 16 -1 19 -3 4 -6 -2 -5 -13z"/>
<path d="M1328 3903 c6 -2 18 -2 25 0 6 3 1 5 -13 5 -14 0 -19 -2 -12 -5z"/>
<path d="M1420 3890 c-24 -8 -23 -8 8 -9 20 -1 31 3 27 9 -3 6 -7 10 -8 9 -1
-1 -13 -5 -27 -9z"/>
<path d="M4625 3815 c10 -22 22 -58 28 -80 12 -50 27 -68 27 -34 0 39 -29 115
-52 135 l-20 19 17 -40z"/>
<path d="M1918 3832 c-13 -3 -18 -13 -18 -40 1 -35 2 -36 15 -18 10 14 15 15
15 6 0 -10 3 -11 11 -3 17 17 -2 60 -23 55z"/>
<path d="M1840 3795 c0 -8 5 -15 10 -15 6 0 10 7 10 15 0 8 -4 15 -10 15 -5 0
-10 -7 -10 -15z"/>
<path d="M3913 3753 c-17 -27 -41 -59 -53 -73 -12 -14 -32 -36 -44 -50 -11
-14 -31 -32 -42 -40 -135 -95 -229 -150 -258 -150 -21 0 -96 -40 -96 -51 0 -5
5 -9 11 -9 5 0 7 5 4 10 -3 6 -1 10 4 10 21 0 11 -20 -17 -34 -16 -8 -35 -23
-43 -32 -13 -16 -12 -17 11 -10 14 4 35 8 48 10 12 2 24 5 25 7 46 69 62 89
73 89 7 0 18 2 26 3 7 2 10 2 6 0 -4 -2 -5 -10 -2 -17 3 -8 -8 -18 -26 -26
-35 -14 -49 -31 -23 -26 73 14 104 29 117 54 7 15 12 32 10 37 -2 6 15 20 38
33 88 46 278 253 278 302 0 22 -18 8 -47 -37z m-293 -307 c0 -3 -4 -8 -10 -11
-5 -3 -10 -1 -10 4 0 6 5 11 10 11 6 0 10 -2 10 -4z"/>
<path d="M2982 3751 c-8 -25 -27 -53 -53 -74 l-40 -35 108 4 c104 3 111 4 190
44 45 23 84 48 87 56 6 15 -19 20 -28 5 -14 -23 -74 -21 -142 5 -110 41 -109
41 -122 -5z m93 -21 c3 -5 15 -10 25 -10 17 0 37 -17 29 -24 -2 -2 -35 -7 -72
-11 l-69 -7 13 24 c6 12 17 26 23 30 16 11 44 10 51 -2z"/>
<path d="M2212 3740 c0 -14 2 -19 5 -12 2 6 2 18 0 25 -3 6 -5 1 -5 -13z"/>
<path d="M2250 3711 c0 -11 -3 -27 -7 -37 -4 -11 -2 -15 7 -12 15 5 24 68 10
68 -6 0 -10 -9 -10 -19z"/>
<path d="M2302 3710 c0 -14 2 -19 5 -12 2 6 2 18 0 25 -3 6 -5 1 -5 -13z"/>
<path d="M2070 3645 c0 -15 27 -45 41 -45 5 0 9 -6 9 -14 0 -13 30 -38 100
-86 12 -8 32 -22 44 -31 21 -16 111 -40 144 -38 14 1 13 2 -3 8 -29 10 -114
49 -162 73 -25 13 -52 39 -69 66 -29 45 -104 94 -104 67z"/>
<path d="M4686 3624 c-9 -22 -6 -95 4 -119 6 -14 9 5 9 58 1 77 -2 90 -13 61z"/>
<path d="M1630 3545 c-8 -9 -8 -15 -2 -15 12 0 26 19 19 26 -2 2 -10 -2 -17
-11z"/>
<path d="M1525 3540 c-19 -8 -19 -9 3 -9 12 -1 22 4 22 9 0 6 -1 10 -2 9 -2 0
-12 -4 -23 -9z"/>
<path d="M1250 3510 c0 -5 5 -10 10 -10 6 0 10 5 10 10 0 6 -4 10 -10 10 -5 0
-10 -4 -10 -10z"/>
<path d="M1576 3499 c-14 -11 -26 -25 -26 -30 0 -12 47 21 54 39 7 17 3 15
-28 -9z"/>
<path d="M2465 3406 c17 -8 38 -17 48 -20 9 -3 17 -12 17 -21 0 -8 -8 -15 -17
-16 -12 -1 -10 -4 7 -9 36 -12 60 -12 60 0 0 6 -9 10 -20 10 -12 0 -17 5 -14
14 3 8 13 12 25 9 28 -8 23 16 -6 27 -13 5 -48 12 -77 15 -52 5 -52 5 -23 -9z"/>
<path d="M2400 3376 c14 -8 27 -12 29 -10 6 6 -1 11 -29 18 l-25 7 25 -15z"/>
<path d="M3365 3379 c-4 -6 -5 -13 -2 -16 7 -7 27 6 27 18 0 12 -17 12 -25 -2z"/>
<path d="M2616 3355 c-9 -36 -7 -40 16 -37 11 2 24 -2 29 -10 7 -10 15 -9 41
7 l33 19 -17 -26 c-24 -36 2 -46 31 -12 11 13 26 24 33 24 6 0 1 -11 -11 -24
-16 -17 -19 -26 -11 -31 7 -5 21 4 34 20 13 17 29 26 41 24 17 -4 18 -5 2 -21
-26 -26 -20 -38 18 -38 29 0 37 5 45 25 5 14 16 25 25 25 19 0 19 -14 0 -30
-16 -13 -21 -40 -7 -40 4 0 14 6 20 12 10 10 15 10 21 -1 7 -11 15 -12 38 -3
48 20 111 18 126 -3 11 -14 16 -15 22 -5 7 11 10 9 17 -6 6 -14 7 -12 3 9 -5
24 -3 27 24 27 16 0 36 6 44 14 10 10 17 12 25 4 13 -13 43 14 65 61 l17 33
-28 -5 c-15 -3 -65 -13 -112 -23 -94 -20 -252 -23 -335 -5 -27 5 -84 15 -125
21 -41 7 -85 13 -96 16 -17 3 -23 -2 -28 -21z m64 -15 c0 -5 -4 -10 -10 -10
-5 0 -10 5 -10 10 0 6 5 10 10 10 6 0 10 -4 10 -10z m601 -24 c-13 -14 -29
-22 -37 -19 -8 3 -21 -1 -30 -8 -14 -12 -16 -11 -12 6 2 11 12 20 23 21 11 1
31 6 45 12 36 15 36 15 11 -12z m-286 -36 c-3 -5 -10 -10 -16 -10 -5 0 -9 5
-9 10 0 6 7 10 16 10 8 0 12 -4 9 -10z m55 6 c0 -2 -7 -6 -15 -10 -8 -3 -15
-1 -15 4 0 6 7 10 15 10 8 0 15 -2 15 -4z"/>
<path d="M2445 3360 c3 -5 15 -10 26 -10 11 0 17 5 14 10 -3 6 -15 10 -26 10
-11 0 -17 -4 -14 -10z"/>
<path d="M1460 3340 c0 -5 5 -10 10 -10 6 0 10 5 10 10 0 6 -4 10 -10 10 -5 0
-10 -4 -10 -10z"/>
<path d="M4613 3326 c-9 -11 -7 -18 11 -35 20 -19 24 -36 30 -117 4 -59 2
-110 -4 -136 -8 -28 -8 -44 -1 -51 16 -16 21 -6 33 68 8 50 8 83 -1 132 -7 41
-9 69 -3 75 6 6 12 6 16 -1 4 -6 17 -11 29 -11 l22 1 -23 12 c-12 7 -20 16
-16 19 3 4 -8 14 -25 23 -17 8 -31 20 -31 25 0 14 -23 12 -37 -4z"/>
<path d="M1442 3300 c-17 -27 -15 -35 4 -16 8 9 14 21 12 26 -2 6 -9 1 -16
-10z"/>
<path d="M3340 3246 c-69 -26 -90 -36 -90 -41 0 -7 51 5 65 15 6 4 32 11 59
15 35 5 45 9 35 16 -18 11 -27 11 -69 -5z"/>
<path d="M3450 3250 c0 -5 5 -10 10 -10 6 0 10 5 10 10 0 6 -4 10 -10 10 -5 0
-10 -4 -10 -10z"/>
<path d="M2930 3175 c0 -8 9 -15 20 -15 24 0 27 15 4 24 -22 9 -24 8 -24 -9z"/>
<path d="M3126 3154 c-9 -8 -22 -12 -28 -8 -10 5 -10 4 -1 -6 10 -11 18 -11
38 -2 14 6 25 16 25 22 0 15 -16 12 -34 -6z"/>
<path d="M2445 3124 c-73 -37 -103 -59 -93 -70 6 -6 52 20 76 43 7 7 20 13 27
13 8 0 35 11 61 25 38 20 42 25 23 25 -14 0 -56 -16 -94 -36z"/>
<path d="M4254 3018 l-29 -33 33 29 c17 17 32 31 32 33 0 8 -8 1 -36 -29z"/>
<path d="M2273 2987 c-11 -12 -28 -36 -37 -54 -12 -25 -25 -34 -54 -39 -51 -9
-56 -14 -35 -29 10 -8 30 -11 45 -8 22 4 27 1 30 -18 1 -12 9 -24 16 -27 9 -3
12 12 12 52 0 44 6 65 26 96 30 45 28 62 -3 27z"/>
<path d="M3041 2953 c1 -65 5 -61 12 10 2 26 1 47 -4 47 -5 0 -9 -26 -8 -57z"/>
<path d="M3833 2992 c3 -12 1 -38 -5 -58 -12 -46 5 -73 32 -49 9 8 23 15 31
15 10 1 8 5 -5 15 -11 8 -21 24 -23 36 -2 11 -10 31 -19 42 l-16 22 5 -23z"/>
<path d="M3121 2928 c-32 -104 -9 -149 85 -167 27 -5 57 -13 67 -16 12 -5 17
-2 17 9 0 15 -28 22 -67 17 -21 -3 -72 28 -84 50 -10 20 -8 62 7 117 10 35
-13 26 -25 -10z"/>
<path d="M4570 2953 c-14 -2 -36 -6 -50 -10 -23 -6 -21 -7 13 -13 64 -12 187
-12 187 -1 0 14 -44 24 -69 16 -11 -3 -28 -2 -38 2 -10 5 -29 8 -43 6z"/>
<path d="M4075 2929 c-23 -5 -15 -7 29 -8 33 0 56 2 52 7 -10 9 -42 9 -81 1z"/>
<path d="M5339 2929 c-10 -6 -7 -9 14 -9 29 0 35 5 14 13 -8 3 -20 1 -28 -4z"/>
<path d="M873 2912 c-35 -28 -53 -87 -52 -171 0 -42 4 -85 8 -95 7 -18 8 -18
14 5 4 13 7 55 7 92 0 74 25 139 57 152 10 3 50 9 90 12 97 8 83 23 -20 23
-62 0 -87 -5 -104 -18z"/>
<path d="M4818 2923 c12 -2 32 -2 45 0 12 2 2 4 -23 4 -25 0 -35 -2 -22 -4z"/>
<path d="M5278 2923 c6 -2 18 -2 25 0 6 3 1 5 -13 5 -14 0 -19 -2 -12 -5z"/>
<path d="M1746 2905 c-4 -11 2 -15 21 -15 21 0 24 2 13 15 -7 8 -16 15 -20 15
-4 0 -10 -7 -14 -15z"/>
<path d="M2849 2902 c6 -12 11 -34 11 -51 0 -41 -29 -57 -105 -60 -64 -2 -101
-20 -49 -23 42 -2 55 -2 89 4 96 18 111 34 92 100 -8 27 -19 44 -31 46 -15 3
-16 1 -7 -16z"/>
<path d="M1825 2901 c-24 -5 -11 -10 62 -20 96 -14 126 -11 117 13 -4 10 -24
14 -77 14 -40 0 -85 -4 -102 -7z"/>
<path d="M2628 2860 c4 -39 1 -55 -13 -70 -14 -15 -15 -20 -4 -20 24 0 36 14
44 48 8 40 -2 92 -19 92 -10 0 -12 -14 -8 -50z"/>
<path d="M5528 2903 c6 -2 18 -2 25 0 6 3 1 5 -13 5 -14 0 -19 -2 -12 -5z"/>
<path d="M1600 2890 c0 -13 108 -11 116 2 3 4 -22 8 -55 8 -35 0 -61 -4 -61
-10z"/>
<path d="M5580 2893 c37 -13 120 -68 120 -80 0 -7 5 -13 11 -13 6 0 8 7 5 16
-3 9 -6 18 -6 20 0 2 -7 4 -15 4 -8 0 -15 4 -15 8 0 10 -86 52 -103 51 -7 0
-5 -3 3 -6z"/>
<path d="M1518 2883 c12 -2 30 -2 40 0 9 3 -1 5 -23 4 -22 0 -30 -2 -17 -4z"/>
<path d="M3337 2858 c-19 -29 -26 -100 -11 -105 7 -2 10 5 7 21 -3 13 3 40 12
60 20 42 14 59 -8 24z"/>
<path d="M3056 2862 c-3 -6 -1 -14 5 -17 14 -9 20 -2 10 14 -6 8 -11 9 -15 3z"/>
<path d="M5688 2772 c-17 -7 -16 -8 2 -20 17 -11 20 -10 20 8 0 11 -1 20 -2
19 -2 0 -11 -4 -20 -7z"/>
<path d="M3595 2746 c-33 -6 -55 -15 -49 -19 13 -8 124 12 139 24 11 11 -13
10 -90 -5z"/>
<path d="M3490 2730 c0 -5 7 -10 15 -10 8 0 15 5 15 10 0 6 -7 10 -15 10 -8 0
-15 -4 -15 -10z"/>
<path d="M830 2526 c0 -52 4 -86 10 -86 12 0 10 159 -2 166 -4 3 -8 -33 -8
-80z"/>
<path d="M1146 2573 c-4 -5 -13 -8 -19 -8 -18 0 -15 -49 3 -52 23 -4 39 10 42
36 3 24 -12 38 -26 24z"/>
<path d="M5720 2521 c0 -28 5 -51 10 -51 6 0 10 20 10 44 0 25 -4 48 -10 51
-6 4 -10 -13 -10 -44z"/>
<path d="M5323 2518 c2 -7 10 -13 17 -13 7 0 15 6 18 13 2 7 -5 12 -18 12 -13
0 -20 -5 -17 -12z"/>
<path d="M848 2230 c-4 -14 -8 -36 -8 -50 1 -22 2 -23 11 -7 6 9 9 32 7 50 -3
31 -3 31 -10 7z"/>
<path d="M830 2101 c0 -6 5 -13 10 -16 6 -3 10 1 10 9 0 9 -4 16 -10 16 -5 0
-10 -4 -10 -9z"/>
<path d="M5732 2060 c0 -14 2 -19 5 -12 2 6 2 18 0 25 -3 6 -5 1 -5 -13z"/>
<path d="M836 2018 c-9 -35 -7 -68 4 -68 6 0 10 20 10 45 0 50 -4 57 -14 23z"/>
<path d="M4850 1974 c0 -3 5 -14 10 -25 12 -21 27 -24 50 -9 13 8 12 11 -5 24
-20 15 -55 22 -55 10z"/>
<path d="M4940 1950 c0 -5 5 -10 10 -10 6 0 10 5 10 10 0 6 -4 10 -10 10 -5 0
-10 -4 -10 -10z"/>
<path d="M5017 1953 c-4 -3 -7 -11 -7 -17 0 -6 5 -5 12 2 6 6 9 14 7 17 -3 3
-9 2 -12 -2z"/>
<path d="M5058 1943 c12 -2 32 -2 45 0 12 2 2 4 -23 4 -25 0 -35 -2 -22 -4z"/>
<path d="M5520 1940 c0 -5 5 -10 10 -10 6 0 10 5 10 10 0 6 -4 10 -10 10 -5 0
-10 -4 -10 -10z"/>
<path d="M833 1844 c-3 -9 0 -32 6 -51 8 -20 10 -50 6 -70 l-6 -36 24 29 c20
23 22 31 12 39 -12 9 -32 75 -23 75 2 0 21 7 43 15 l40 14 -48 1 c-35 0 -49
-4 -54 -16z"/>
<path d="M5520 1832 c0 -17 -4 -34 -10 -37 -5 -3 -10 -22 -10 -41 0 -22 -6
-37 -15 -40 -17 -7 -21 -34 -5 -34 18 0 11 -29 -12 -52 -13 -13 -29 -22 -36
-20 -23 6 -50 -86 -28 -100 19 -13 86 -9 88 5 4 38 19 90 30 103 9 12 13 232
4 242 -3 3 -6 -9 -6 -26z"/>
<path d="M5154 1829 c-3 -5 4 -9 15 -9 32 0 27 -38 -6 -52 -21 -8 -24 -12 -11
-15 11 -3 15 -10 11 -20 -4 -10 -2 -14 6 -12 7 3 13 9 13 14 0 6 9 21 19 34
13 17 16 28 9 41 -11 20 -47 33 -56 19z"/>
<path d="M5033 1791 c-7 -11 -8 -23 -2 -32 5 -8 9 -34 9 -59 0 -33 3 -41 10
-30 12 18 13 127 2 134 -4 2 -13 -3 -19 -13z"/>
<path d="M5295 1780 c-3 -5 1 -10 9 -10 9 0 16 5 16 10 0 6 -4 10 -9 10 -6 0
-13 -4 -16 -10z"/>
<path d="M5733 1695 c0 -27 2 -38 4 -22 2 15 2 37 0 50 -2 12 -4 0 -4 -28z"/>
<path d="M4890 1704 c0 -9 -5 -12 -12 -8 -8 5 -9 2 -5 -9 3 -9 1 -19 -5 -23
-7 -4 -6 -9 2 -14 9 -6 9 -12 -1 -28 -11 -18 -10 -24 5 -41 19 -21 14 -41 -10
-41 -13 0 -35 40 -33 58 3 17 -2 32 -9 32 -12 0 -12 -111 0 -142 10 -26 14
-28 68 -28 76 0 150 11 150 21 0 5 -15 10 -32 10 -24 1 -27 3 -10 6 26 5 25 4
10 38 -7 16 -19 25 -35 25 -14 0 -26 7 -29 18 -4 9 -13 32 -21 49 -7 18 -13
39 -12 45 3 27 -1 48 -11 48 -5 0 -10 -7 -10 -16z"/>
<path d="M5187 1700 c-3 -11 -1 -20 4 -20 5 0 9 9 9 20 0 11 -2 20 -4 20 -2 0
-6 -9 -9 -20z"/>
<path d="M4810 1655 c0 -8 5 -15 10 -15 6 0 10 7 10 15 0 8 -4 15 -10 15 -5 0
-10 -7 -10 -15z"/>
<path d="M5728 1584 c-5 -4 -8 -21 -8 -38 0 -21 3 -27 11 -19 6 6 9 23 7 38
-2 15 -6 23 -10 19z"/>
<path d="M836 1535 c-3 -8 -1 -15 4 -15 6 0 10 7 10 15 0 8 -2 15 -4 15 -2 0
-6 -7 -10 -15z"/>
<path d="M5109 1530 c-18 -12 88 -23 151 -16 69 7 76 16 14 16 -27 1 -72 2
-101 4 -28 2 -57 0 -64 -4z"/>
<path d="M850 1450 c0 -35 3 -60 6 -57 8 7 7 108 -1 115 -3 3 -5 -23 -5 -58z"/>
<path d="M1288 1353 c-22 -24 -23 -53 -3 -53 19 0 28 20 23 50 -3 22 -3 22
-20 3z"/>
<path d="M876 1201 c-8 -12 19 -74 38 -90 32 -27 34 1 4 49 -33 54 -34 54 -42
41z"/>
<path d="M720 1171 c0 -26 14 -75 37 -128 7 -17 13 -36 13 -42 0 -6 5 -11 10
-11 13 0 15 -7 -25 106 -19 54 -35 88 -35 75z"/>
<path d="M2920 1183 c-1 -30 -22 -35 -185 -40 -166 -6 -167 -6 -161 15 6 19 4
20 -39 17 -26 -2 -53 -9 -61 -16 -11 -9 -21 -9 -40 0 -32 14 -34 14 -34 -4 0
-10 -10 -15 -30 -15 -16 0 -30 5 -30 10 0 15 -67 12 -73 -2 -4 -10 -8 -10 -15
1 -6 8 -15 10 -22 6 -7 -4 -135 -9 -284 -11 -149 -1 -296 -3 -326 -4 l-55 -2
40 -9 c22 -4 72 -8 110 -8 61 -1 72 -4 84 -23 12 -19 14 -20 23 -5 5 9 20 17
33 17 28 0 29 -3 15 -31 -11 -20 -25 -297 -24 -474 1 -136 23 -276 60 -380 15
-44 31 -82 34 -85 4 -3 10 -21 14 -41 10 -56 35 -99 56 -99 17 0 15 7 -15 65
-19 36 -35 76 -35 88 0 13 -5 28 -11 34 -9 9 -27 68 -49 168 -5 22 -9 65 -10
95 0 30 -7 79 -15 109 -8 30 -12 58 -9 62 2 4 6 88 9 186 3 98 7 189 10 203 3
14 8 40 11 59 l7 34 77 -6 c45 -4 92 -2 111 4 47 15 332 18 393 5 27 -6 51
-17 54 -25 3 -10 0 -11 -16 -2 -15 8 -23 7 -32 -4 -11 -13 -7 -15 20 -15 19 0
39 -7 47 -17 8 -10 12 -12 8 -6 -4 9 -1 11 9 7 9 -3 14 -10 11 -14 -3 -5 0
-12 6 -16 8 -4 9 -3 5 4 -4 7 -1 12 9 12 8 0 21 -11 27 -25 14 -31 44 -29 41
2 -2 16 5 22 29 27 23 5 34 2 41 -9 11 -20 27 -19 27 1 0 12 6 15 26 10 17 -5
23 -3 19 4 -3 5 1 10 10 10 9 0 27 7 41 16 22 15 24 15 18 0 -6 -17 11 -23 20
-7 7 10 242 5 259 -6 8 -5 3 -10 -13 -14 -21 -6 -19 -7 13 -8 34 -1 38 1 32
19 -4 11 -2 20 4 20 10 0 16 -21 12 -42 0 -5 6 -8 15 -8 11 0 14 5 10 17 -4 9
-1 20 6 25 20 12 31 10 25 -6 -4 -11 3 -13 35 -8 27 3 39 2 35 -5 -11 -17 28
-22 48 -7 25 18 135 18 170 0 17 -9 38 -37 57 -75 30 -61 48 -77 48 -42 0 33
-32 176 -42 188 -16 20 12 23 207 23 58 0 97 12 83 25 -8 8 -70 9 -300 6 -165
-2 -174 -4 -169 -33 2 -14 -51 -21 -141 -19 -49 1 -61 5 -83 29 -15 15 -23 20
-20 10 5 -13 2 -15 -14 -11 -12 3 -21 9 -21 14 0 5 -27 9 -60 9 -39 0 -59 -4
-57 -11 1 -6 -4 -14 -10 -16 -7 -3 -13 2 -13 11 0 10 -9 16 -24 16 -13 0 -29
7 -36 15 -13 16 -40 21 -40 8z m-65 -84 c23 -7 17 -8 -30 -4 -49 3 -55 2 -32
-6 15 -6 27 -14 27 -19 0 -9 -82 -1 -90 10 -9 12 -90 6 -90 -7 0 -8 -9 -7 -29
5 -35 20 -32 32 7 26 15 -2 59 0 97 5 70 9 82 8 140 -10z m-76 -45 c2 -2 -7
-4 -21 -4 -14 0 -40 -3 -59 -7 -30 -6 -31 -5 -18 10 10 12 24 14 54 10 22 -3
42 -7 44 -9z m-119 -38 c0 -3 -4 -8 -10 -11 -5 -3 -10 -1 -10 4 0 6 5 11 10
11 6 0 10 -2 10 -4z"/>
<path d="M3058 1183 c7 -3 16 -2 19 1 4 3 -2 6 -13 5 -11 0 -14 -3 -6 -6z"/>
<path d="M3960 1171 c0 -12 8 -25 18 -28 9 -4 33 -17 54 -31 22 -14 47 -22 65
-20 l28 3 -40 20 c-29 15 -39 26 -38 41 1 11 -3 21 -10 22 -7 1 -27 5 -44 8
-29 5 -33 4 -33 -15z"/>
<path d="M4360 1182 c-85 -6 -67 -22 25 -22 51 0 85 4 80 9 -14 12 -54 17
-105 13z"/>
<path d="M2625 1170 c3 -5 13 -10 21 -10 8 0 14 5 14 10 0 6 -9 10 -21 10 -11
0 -17 -4 -14 -10z"/>
<path d="M2728 1173 c6 -2 18 -2 25 0 6 3 1 5 -13 5 -14 0 -19 -2 -12 -5z"/>
<path d="M2870 1170 c0 -5 7 -10 16 -10 8 0 12 5 9 10 -3 6 -10 10 -16 10 -5
0 -9 -4 -9 -10z"/>
<path d="M4105 1170 c-8 -12 20 -24 35 -15 6 3 8 11 5 16 -8 12 -32 12 -40 -1z"/>
<path d="M4167 1174 c-14 -15 26 -35 80 -39 77 -7 235 -15 353 -19 107 -4 111
-8 91 -82 -8 -30 -7 -41 4 -54 13 -14 13 -24 0 -76 -20 -76 -72 -184 -90 -184
-8 0 -22 -12 -32 -27 -38 -56 -177 -183 -212 -194 -57 -16 -118 -21 -126 -10
-3 6 -22 11 -41 11 -19 0 -51 7 -71 15 -41 17 -63 19 -63 5 0 -13 68 -41 103
-42 15 -1 30 -5 33 -10 11 -18 115 -8 176 17 34 14 64 23 67 20 3 -3 10 3 15
13 6 11 54 58 105 106 75 69 101 100 124 149 16 34 33 70 38 80 5 9 16 39 25
65 20 60 28 67 47 47 15 -14 17 -12 27 25 6 22 8 45 5 50 -10 17 -25 11 -35
-12 -8 -22 -9 -22 -9 4 -1 15 4 38 10 51 10 23 13 23 67 15 37 -6 93 -5 159 2
112 13 143 8 143 -21 0 -10 5 -19 10 -19 6 0 10 9 10 19 0 23 28 35 45 21 9
-8 15 -8 20 0 4 7 23 8 53 4 70 -11 367 -10 367 0 0 11 -73 17 -80 6 -3 -5
-21 -4 -40 1 -20 6 -60 9 -90 7 -30 -2 -55 -1 -55 3 0 4 -82 7 -182 8 -101 0
-254 5 -342 11 -94 6 -163 7 -170 1 -6 -4 -20 -5 -31 0 -11 4 -42 9 -70 10
l-50 2 40 6 c22 3 36 9 30 12 -17 10 -89 9 -105 -1 -13 -9 -13 -10 0 -10 13
-1 13 -1 0 -9 -8 -4 -76 -5 -150 -1 -74 4 -128 7 -120 8 13 2 13 3 0 12 -17
11 -73 13 -83 4z m583 -99 c0 -14 -6 -25 -14 -25 -9 0 -12 8 -8 25 2 14 8 25
13 25 5 0 9 -11 9 -25z"/>
<path d="M4718 1163 c7 -3 16 -2 19 1 4 3 -2 6 -13 5 -11 0 -14 -3 -6 -6z"/>
<path d="M3245 1150 c-11 -18 10 -32 41 -28 40 4 38 32 -3 36 -17 2 -34 -2
-38 -8z"/>
<path d="M3357 1153 c-17 -16 -5 -29 22 -25 20 3 28 8 24 18 -5 14 -35 19 -46
7z"/>
<path d="M1365 1139 c-44 -4 -96 -11 -115 -15 -41 -9 -70 -6 -87 8 -9 7 -15 6
-19 -5 -3 -9 -12 -13 -19 -11 -16 7 -25 -55 -12 -88 l8 -23 23 28 c22 27 46
36 46 17 0 -6 9 -6 23 -1 12 5 63 9 112 10 126 2 138 2 146 -7 10 -9 12 -81 5
-162 -20 -232 -29 -780 -13 -797 8 -8 9 -5 12 77 12 317 17 460 21 610 6 212
10 270 19 298 8 28 -21 31 -41 5 -13 -17 -13 -17 -14 0 0 13 -8 17 -35 17 -19
0 -35 4 -35 9 0 9 72 21 132 21 24 0 37 4 33 10 -7 11 -74 11 -190 -1z"/>
<path d="M1049 1103 c-6 -16 -13 -44 -16 -63 -15 -107 -35 -946 -24 -990 6
-20 9 -22 16 -10 9 14 14 230 15 691 0 211 1 217 23 240 17 18 22 35 21 69 0
25 3 50 8 57 6 7 7 17 3 23 -12 19 -35 10 -46 -17z"/>
<path d="M5708 1123 c7 -3 16 -2 19 1 4 3 -2 6 -13 5 -11 0 -14 -3 -6 -6z"/>
<path d="M4440 1080 c-40 -26 -57 -30 -155 -36 -88 -5 -119 -3 -155 10 -55 19
-70 20 -70 4 0 -16 70 -45 127 -54 108 -17 313 45 313 95 0 16 -9 13 -60 -19z"/>
<path d="M5384 1036 c-3 -15 -2 -32 3 -37 13 -13 23 34 12 52 -5 9 -10 4 -15
-15z"/>
<path d="M1623 1027 c-59 -26 -74 -37 -49 -37 24 0 106 39 106 50 0 12 5 13
-57 -13z"/>
<path d="M5330 1040 c0 -5 5 -10 11 -10 5 0 7 5 4 10 -3 6 -8 10 -11 10 -2 0
-4 -4 -4 -10z"/>
<path d="M1290 1025 c0 -8 5 -15 10 -15 6 0 10 7 10 15 0 8 -4 15 -10 15 -5 0
-10 -7 -10 -15z"/>
<path d="M3100 1020 c6 -11 13 -20 15 -20 3 0 5 9 5 20 0 11 -7 20 -15 20 -13
0 -14 -4 -5 -20z"/>
<path d="M2620 961 c0 -13 28 -33 41 -29 8 3 6 9 -5 21 -19 18 -36 22 -36 8z"/>
<path d="M5381 800 c-1 -3 -4 -36 -7 -75 -3 -52 -1 -65 6 -52 6 9 9 43 7 75
-2 31 -4 55 -6 52z"/>
<path d="M3533 753 c-32 -6 -79 -12 -105 -12 -50 -1 -184 -41 -232 -69 -19
-12 -33 -32 -42 -60 -6 -23 -17 -49 -23 -56 -7 -8 -9 -25 -6 -38 3 -12 -1 -43
-10 -68 -24 -69 -45 -179 -45 -240 0 -31 -5 -61 -11 -67 -7 -7 -9 -20 -5 -30
11 -28 21 -2 40 105 10 52 21 104 26 115 8 19 9 18 11 -13 1 -19 1 -43 1 -53
-3 -30 15 -10 59 64 22 39 47 73 55 76 8 3 14 14 14 24 0 10 7 19 15 19 8 0
19 9 24 19 12 22 109 96 117 89 2 -3 -29 -33 -71 -67 -75 -63 -84 -74 -64 -86
7 -5 4 -14 -7 -26 -19 -21 -13 -35 9 -22 9 4 31 23 51 41 19 17 38 32 41 32 3
0 38 25 79 55 47 35 77 65 84 84 8 23 15 28 30 24 15 -3 25 3 39 24 10 15 23
34 30 41 7 7 13 22 13 32 0 25 14 32 62 32 60 -1 65 -14 23 -58 l-37 -39 16
32 c9 18 16 38 16 45 -1 18 -90 -82 -90 -101 0 -9 -14 -27 -31 -41 -79 -63
-89 -73 -89 -86 0 -23 26 -16 63 19 60 55 88 77 100 77 7 0 -8 -18 -32 -40
-32 -30 -41 -44 -33 -52 13 -13 46 -3 37 11 -3 6 4 15 16 22 44 23 139 103
139 116 0 7 5 13 10 13 5 0 9 3 9 8 -3 20 4 20 34 2 34 -21 67 -26 67 -11 0
14 -150 106 -195 119 -46 14 -119 12 -202 -5z m107 -42 c0 -16 -64 -51 -71
-39 -4 6 -14 8 -23 5 -21 -8 -21 7 0 24 12 10 20 10 34 1 14 -9 21 -8 30 3 14
17 30 20 30 6z m175 -31 c7 -11 -18 -40 -34 -40 -7 0 -7 8 1 25 12 27 23 31
33 15z m-495 -30 c-6 -11 -15 -20 -21 -20 -6 0 -6 7 1 20 6 11 15 20 21 20 6
0 6 -7 -1 -20z m96 -8 c-17 -16 -18 -16 -5 5 7 12 15 20 18 17 3 -2 -3 -12
-13 -22z m88 -23 c-32 -33 -36 -35 -28 -14 4 8 10 15 14 15 5 0 12 9 15 20 4
11 11 17 17 14 5 -4 -2 -18 -18 -35z m-130 -38 c-9 -18 -17 -31 -19 -29 -1 2
-8 13 -14 25 -9 18 -9 22 2 17 8 -3 20 2 27 11 20 24 22 12 4 -24z m351 9 c-3
-5 -16 -10 -28 -9 -21 0 -21 1 -2 9 28 12 37 12 30 0z m-501 -64 c-9 -15 -19
-24 -22 -22 -2 3 3 17 12 32 10 14 20 23 23 21 2 -3 -3 -17 -13 -31z m96 5 c0
-5 -7 -11 -15 -15 -15 -5 -20 5 -8 17 9 10 23 9 23 -2z m-46 -20 c6 -10 -10
-25 -37 -34 -13 -5 -16 -3 -11 6 21 36 37 46 48 28z m81 -61 c-3 -5 -11 -10
-16 -10 -6 0 -7 5 -4 10 3 6 11 10 16 10 6 0 7 -4 4 -10z m-142 -14 c7 -17
-17 -53 -26 -39 -8 12 3 53 13 53 4 0 10 -6 13 -14z m-76 -58 c-3 -8 -6 -5 -6
6 -1 11 2 17 5 13 3 -3 4 -12 1 -19z"/>
<path d="M5641 633 c1 -65 5 -61 12 10 2 26 1 47 -4 47 -5 0 -9 -26 -8 -57z"/>
<path d="M3896 576 c-16 -25 -13 -56 5 -56 5 0 12 8 15 18 3 9 9 24 14 33 9
16 4 29 -11 29 -3 0 -14 -11 -23 -24z"/>
<path d="M741 570 c14 -31 19 -36 19 -24 0 6 -7 19 -16 30 -14 18 -14 18 -3
-6z"/>
<path d="M3792 568 c-22 -24 -40 -78 -26 -78 5 0 21 16 37 34 42 54 34 91 -11
44z"/>
<path d="M4027 559 c7 -7 15 -10 18 -7 3 3 -2 9 -12 12 -14 6 -15 5 -6 -5z"/>
<path d="M3431 448 c-7 -11 -10 -22 -8 -24 8 -9 37 8 37 21 0 23 -15 25 -29 3z"/>
<path d="M3368 407 c-10 -8 -13 -18 -9 -26 11 -17 51 3 51 24 0 18 -19 19 -42
2z"/>
<path d="M3298 335 c-42 -39 -49 -65 -18 -65 11 0 20 6 20 13 0 7 8 22 18 33
20 22 35 54 24 54 -4 0 -24 -16 -44 -35z"/>
<path d="M4490 251 c0 -22 5 -43 10 -46 6 -4 10 10 10 34 0 22 -4 43 -10 46
-6 4 -10 -10 -10 -34z"/>
<path d="M3203 263 c-3 -10 -13 -26 -21 -35 -8 -10 -11 -18 -5 -18 5 0 16 11
23 25 7 14 17 25 22 25 4 0 8 5 8 10 0 17 -20 11 -27 -7z"/>
<path d="M940 200 c0 -5 5 -10 10 -10 6 0 10 5 10 10 0 6 -4 10 -10 10 -5 0
-10 -4 -10 -10z"/>
<path d="M4500 160 c0 -16 4 -30 9 -30 5 0 9 14 9 30 -1 17 -5 30 -10 30 -4 0
-8 -13 -8 -30z"/>
<path d="M5610 135 c0 -19 4 -35 9 -35 5 0 9 16 9 35 0 19 -4 35 -9 35 -5 0
-9 -16 -9 -35z"/>
<path d="M3040 30 c0 -20 5 -30 15 -30 10 0 15 10 15 30 0 20 -5 30 -15 30
-10 0 -15 -10 -15 -30z"/>
<path d="M4482 36 c-14 -30 -9 -47 9 -29 6 6 9 21 7 34 -3 23 -3 23 -16 -5z"/>
</g>
</svg>
